<svg xmlns="http://www.w3.org/2000/svg" width="10" height="18.44" viewBox="0 0 10 18.44">
  <defs>
    <style>
      .cls-1 {
        fill: #aaa;
        fill-rule: evenodd;
      }
    </style>
  </defs>
  <path id="share_story" class="cls-1" d="M928.426,3091.01h-8.035a0.96,0.96,0,0,0-.978.95v7.82a0.967,0.967,0,0,0,.978.95H924.1a5.838,5.838,0,0,1-1,2.84,11.686,11.686,0,0,1-2.034,2.14,0.51,0.51,0,0,0-.189.38,0.521,0.521,0,0,0,.137.32l2.584,2.84a0.7,0.7,0,0,0,.231.16,0.4,0.4,0,0,0,.341-0.04,12.648,12.648,0,0,0,5.231-9.89v-7.52a0.96,0.96,0,0,0-.976-0.95" transform="translate(-919.406 -3091)"/>
</svg>
