<svg xmlns="http://www.w3.org/2000/svg" viewBox="0 0 323.99 330.74"><defs><style>.cls-1{fill:#fff;stroke:#fff;stroke-miterlimit:10;stroke-width:5px;}</style></defs><g id="레이어_2" data-name="레이어 2"><g id="_迹_1" data-name="卵迹_1"><rect width="323.99" height="330.74" rx="162"/><path class="cls-1" d="M162,135.92a29.45,29.45,0,1,1-29.45,29.45A29.45,29.45,0,0,1,162,135.92m0-16.28a45.73,45.73,0,1,0,45.72,45.73A45.78,45.78,0,0,0,162,119.64Z"/><path class="cls-1" d="M201,93.2a33.18,33.18,0,0,1,33.18,33.18v78A33.18,33.18,0,0,1,201,237.54H123a33.18,33.18,0,0,1-33.18-33.18v-78A33.18,33.18,0,0,1,123,93.2h78m0-16.28H123a49.52,49.52,0,0,0-49.46,49.46v78A49.52,49.52,0,0,0,123,253.82h78a49.51,49.51,0,0,0,49.46-49.46v-78A49.51,49.51,0,0,0,201,76.92Z"/><circle class="cls-1" cx="210.11" cy="117.26" r="10.78"/></g></g></svg>