<svg xmlns="http://www.w3.org/2000/svg" viewBox="0 0 323.99 326.67"><defs><style>.cls-1{fill:#fff;stroke:#fff;stroke-miterlimit:10;stroke-width:10px;}</style></defs><g id="레이어_2" data-name="레이어 2"><g id="_迹_1" data-name="卵迹_1"><rect width="323.99" height="326.67" rx="162"/><path class="cls-1" d="M247.77,152.66l-63-71.32a27.79,27.79,0,0,0-41.55,0l-63,71.32a5.73,5.73,0,0,0-.92,6.22,5.87,5.87,0,0,0,5.35,3.41H95.42v72.56a5.85,5.85,0,0,0,5.89,5.81H226.69a5.85,5.85,0,0,0,5.88-5.81V162.29h10.77a5.87,5.87,0,0,0,5.35-3.41A5.73,5.73,0,0,0,247.77,152.66ZM152.09,89a15.92,15.92,0,0,1,23.81,0l54.5,61.69H97.59ZM220.8,229H107.19V162.29H220.8Z"/></g></g></svg>