<svg xmlns="http://www.w3.org/2000/svg" viewBox="0 0 323.99 330.74"><defs><style>.cls-1{fill:#fff;}</style></defs><g id="레이어_2" data-name="레이어 2"><g id="_迹_1" data-name="卵迹_1"><rect width="323.99" height="330.74" rx="162"/><path class="cls-1" d="M256.74,136.77c-.39-2.58-.83-5.18-1.33-7.76-.32-1.73-.67-3.44-1-5.15a28.8,28.8,0,0,0-1-3.36c-.2-.58-.44-1.15-.67-1.71a27.16,27.16,0,0,0-7.48-10,32.47,32.47,0,0,0-16.63-7.15c-43.84-5.73-87.13-4.36-133.24,0a27.52,27.52,0,0,0-4,.69,26.72,26.72,0,0,0-4.05,1.35l-.32.14a31.34,31.34,0,0,0-8.36,4.94,26.11,26.11,0,0,0-7.21,9.43c-.16.33-.31.68-.44,1s-.22.55-.33.84l-.22.63-.81,2.93c-.38,1.72-.73,3.43-1,5.16q-.75,3.85-1.32,7.76a189.64,189.64,0,0,0-2.06,23.67c0,.73,0,1.48,0,2.24,0,.93,0,1.85,0,2.78v.19c0,.94.14,3.48,2.13,28.5.38,2.58.82,5.18,1.32,7.76.32,1.73.67,3.44,1,5.15a28.8,28.8,0,0,0,1,3.36c.21.58.44,1.15.68,1.71a27,27,0,0,0,7.47,10,32.37,32.37,0,0,0,16.63,7.15c43.86,5.75,87.13,4.38,133.24,0a25.63,25.63,0,0,0,4.26-.76l.5-.12a31.51,31.51,0,0,0,4.12-1.49,1.59,1.59,0,0,1,.27-.12,31.4,31.4,0,0,0,7.59-4.63,26.11,26.11,0,0,0,7.21-9.43c.17-.33.31-.68.45-1s.22-.55.32-.84l.22-.63.81-2.93c.38-1.72.73-3.43,1-5.16q.75-3.85,1.33-7.76a191.55,191.55,0,0,0,2.05-23.66c0-.74,0-1.49,0-2.25,0-1,0-2,0-3S258.72,161.79,256.74,136.77Z"/><path d="M191.19,165.18a.22.22,0,0,1,0,.38l-24.3,14-24.31,14a.22.22,0,0,1-.33-.19V137.3a.22.22,0,0,1,.33-.19l24.31,14Z"/></g></g></svg>