<svg xmlns="http://www.w3.org/2000/svg" viewBox="0 0 135 135"><defs><style>.cls-1{fill:#010201;}.cls-2{fill:#fff;}</style></defs><g id="레이어_2" data-name="레이어 2"><g id="Graphic_Elements" data-name="Graphic Elements"><circle class="cls-1" cx="67.5" cy="67.5" r="67.5"/><path class="cls-2" d="M68.14,102a56.68,56.68,0,0,1-8.54-.51,1.44,1.44,0,0,0-1.13.28c-5.62,3.94-11.23,7.89-17,11.56-.71.45-1.44.85-2.17,1.26a2.4,2.4,0,0,1-.83.28c-.93.13-1.47-.42-1.28-1.34.35-1.62.83-3.2,1.28-4.79,1.15-4,2.29-8,3.45-12,.1-.35.07-.52-.3-.7A44.33,44.33,0,0,1,27.36,84.85a32.46,32.46,0,0,1-7.46-16,30.31,30.31,0,0,1,3.48-19.57A39.87,39.87,0,0,1,37,34.93a53.38,53.38,0,0,1,19.83-7.68,59.78,59.78,0,0,1,16-.7,53.59,53.59,0,0,1,27.55,10.06,36.79,36.79,0,0,1,12.48,15.22c4.25,10,3.36,19.74-2.3,29A40.6,40.6,0,0,1,95.85,94.66a54.14,54.14,0,0,1-18.37,6.49A58.5,58.5,0,0,1,68.14,102Z"/><path class="cls-1" d="M90.42,61.54a2.36,2.36,0,0,1,.32-.44q3.54-3.56,7.09-7.1a2.33,2.33,0,0,1,3-.39,2.46,2.46,0,0,1,.59,4c-1.94,1.93-3.87,3.88-5.82,5.8-.27.27-.26.42,0,.71q3.24,4.26,6.46,8.55a2.77,2.77,0,1,1-4.37,3.39q-2.88-3.8-5.75-7.61a1.39,1.39,0,0,0-.15-.19c-.22-.22-.28-.65-.63-.67s-.91,1-.91,1.29c0,1.9,0,3.8,0,5.71A2.7,2.7,0,0,1,88,77.27a2.79,2.79,0,0,1-3.24-2.77c0-6.28,0-12.57,0-18.85a2.76,2.76,0,1,1,5.52,0c0,1.81,0,3.61,0,5.41v.38Z"/><path class="cls-1" d="M38.2,66.66c0-2.62,0-5.24,0-7.87,0-.41-.07-.56-.53-.55-1.23,0-2.46,0-3.69,0a2.71,2.71,0,1,1,0-5.41q7,0,14,0a2.71,2.71,0,0,1,.76,5.33,2.89,2.89,0,0,1-.83.08c-1.22,0-2.45,0-3.68,0-.41,0-.49.13-.49.5q0,7.84,0,15.69a2.71,2.71,0,0,1-1.9,2.79,2.75,2.75,0,0,1-3.64-2.64C38.19,71.94,38.2,69.3,38.2,66.66Z"/><path class="cls-1" d="M69.47,65c0-3.11,0-6.23,0-9.35A2.77,2.77,0,0,1,72,52.86a2.82,2.82,0,0,1,3,2.08,3.5,3.5,0,0,1,.09,1q0,7.7,0,15.4c0,.43.11.54.54.54,1.8,0,3.61,0,5.41,0a2.56,2.56,0,0,1,2.59,2.38,2.53,2.53,0,0,1-2.42,2.65c-3.11,0-6.23,0-9.34,0a2.51,2.51,0,0,1-2.41-2.55C69.46,71.23,69.47,68.1,69.47,65Z"/><path class="cls-1" d="M67.57,72.75c-1.15-3-2.32-6.08-3.47-9.13-1-2.7-2-5.41-3.09-8.11a3.94,3.94,0,0,0-4.27-2.59,4.05,4.05,0,0,0-3.1,2.73Q50.82,63.06,48,70.47A25,25,0,0,0,46.77,74c-.41,2,.26,3,2.2,3.26a2.47,2.47,0,0,0,3-1.73c.35-.9.71-1.79,1-2.7a.46.46,0,0,1,.53-.36c1.28,0,2.56,0,3.84,0s2.53,0,3.79,0a.52.52,0,0,1,.58.42c.33.93.75,1.82,1,2.76a2.27,2.27,0,0,0,2.29,1.64A4.1,4.1,0,0,0,66.79,77,1.77,1.77,0,0,0,68,75.39,6,6,0,0,0,67.57,72.75ZM56.63,67.6c-.54,0-1.09,0-1.63,0-.35,0-.4-.07-.28-.4q1.06-3,2.11-6c.16-.45.32-.9.52-1.49.95,2.68,1.85,5.24,2.77,7.85Z"/></g></g></svg>