<svg xmlns="http://www.w3.org/2000/svg" viewBox="0 0 323.99 330.74"><defs><style>.cls-1{fill:#fff;}</style></defs><g id="레이어_2" data-name="레이어 2"><g id="_迹_1" data-name="卵迹_1"><path d="M324,162v6.76a162,162,0,0,1-142,160.76A160.1,160.1,0,0,1,162,330.74a161.76,161.76,0,0,1-162-162V162a162,162,0,0,1,324,0Z"/><path class="cls-1" d="M181.94,160.61v25.63h38.93l-6.28,42.63H181.94V329.51A160.1,160.1,0,0,1,162,330.74a163.11,163.11,0,0,1-25.27-1.95V228.87H99.44l.74-42.63h36.54V149.37c0-27.34,24.59-59.59,84.15-46.18V139l-18.07.33C190.33,139.57,181.94,148.12,181.94,160.61Z"/></g></g></svg>