<svg xmlns="http://www.w3.org/2000/svg" width="19" height="24" viewBox="0 0 19 24">
  <defs>
    <style>
      .cls-1 {
        fill: #aaa;
        fill-rule: evenodd;
      }
    </style>
  </defs>
  <path id="share_band" class="cls-1" d="M1066.5,3093.06a9.494,9.494,0,0,0-2.34.29v-1.8c0-.04-0.01-0.08-0.01-0.12a3.573,3.573,0,0,0-7.14,0c-0.01.04-.02,6.74-0.02,6.74v4.45A9.51,9.51,0,1,0,1066.5,3093.06Zm0,17.48a8.036,8.036,0,0,1-8.05-8.01v-10.91a2.125,2.125,0,1,1,4.25,0l-0.01,10.81a3.878,3.878,0,0,0,3.81,3.89,3.8,3.8,0,1,0-2.34-6.79v-1.62a5.113,5.113,0,0,1,2.34-.56,5.175,5.175,0,1,1-5.19,5.18v-10.98a0.731,0.731,0,0,0-1.46,0v10.98a4.015,4.015,0,0,0,.02.49,6.648,6.648,0,1,0,6.63-7.12,6.741,6.741,0,0,0-2.34.42v-1.46a7.841,7.841,0,0,1,2.34-.35A8.015,8.015,0,1,1,1066.5,3110.54Zm-2.34-8.01a2.34,2.34,0,1,1,2.34,2.33A2.343,2.343,0,0,1,1064.16,3102.53Z" transform="translate(-1057 -3088)"/>
</svg>
