<svg xmlns="http://www.w3.org/2000/svg" width="23.03" height="18.66" viewBox="0 0 23.03 18.66">
  <defs>
    <style>
      .cls-1 {
        fill: #aaa;
        fill-rule: evenodd;
      }
    </style>
  </defs>
  <path id="share_twit" class="cls-1" d="M1029.99,3093.8a9.519,9.519,0,0,1-2.72.74,4.711,4.711,0,0,0,2.08-2.6,9.616,9.616,0,0,1-3,1.14,4.719,4.719,0,0,0-8.16,3.22,4.832,4.832,0,0,0,.12,1.08,13.423,13.423,0,0,1-9.73-4.93,4.721,4.721,0,0,0,1.46,6.3,4.732,4.732,0,0,1-2.14-.6v0.06a4.73,4.73,0,0,0,3.79,4.63,4.928,4.928,0,0,1-2.13.08,4.723,4.723,0,0,0,4.41,3.27,9.542,9.542,0,0,1-5.87,2.02,10.36,10.36,0,0,1-1.12-.07,13.421,13.421,0,0,0,20.66-11.29c0-.2,0-0.41-0.01-0.61a9.948,9.948,0,0,0,2.36-2.44" transform="translate(-1006.97 -3091.59)"/>
</svg>
